<?xml version="1.0" encoding="utf-8"?>
<!-- Generator: Adobe Illustrator 27.2.0, SVG Export Plug-In . SVG Version: 6.00 Build 0)  -->
<svg version="1.1" id="Layer_1" xmlns="http://www.w3.org/2000/svg" xmlns:xlink="http://www.w3.org/1999/xlink" x="0px" y="0px"
	 width="1080px" height="1080px" viewBox="0 0 1080 1080" enable-background="new 0 0 1080 1080" xml:space="preserve">
<rect fill="#FFFFFF" width="1080" height="1080"/>
<g>
	<path fill="#333333" d="M397.103,667.975c-17.904-19.52-30.985-39.334-39.248-59.444c-12.592-30.759-18.886-64.075-18.886-99.963
		c0-60.725,16.917-111.2,50.757-151.422c41.706-49.487,101.413-74.232,179.125-74.232c64.922,0,116.02,18.535,153.304,55.601
		c37.279,37.07,55.921,87.051,55.921,149.943c0,68.613-19.822,123.82-59.462,165.618c-39.645,41.802-88.973,62.697-147.992,62.697
		c-17.314,0-37.971-2.86-61.971-8.576c63.543,26.418,115.089,44.755,154.632,55.009c21.247,5.716,41.212,8.576,59.905,8.576
		c13.178,0,25.918-1.233,38.215-3.696c12.293-2.468,28.477-7.348,48.544-14.64l10.328,21.294
		c-38.562,24.843-69.154,42.19-91.775,52.051c-13.183,5.518-25.282,8.281-36.298,8.281c-10.821,0-23.511-2.269-38.067-6.802
		c-20.463-6.507-41.217-15.67-62.271-27.491c-12.394-6.903-39.248-24.256-80.562-52.061c-26.951-18.341-49.969-31.058-69.049-38.155
		c-19.084-7.099-44.56-12.718-76.43-16.857V664.13C375.459,664.92,385.889,666.2,397.103,667.975z M441.368,486.978
		c0,75.12,13.178,129.736,39.543,163.843c19.08,25.24,47.607,37.855,85.578,37.855c33.245,0,58.725-11.534,76.431-34.602
		c22.428-29.575,33.642-79.261,33.642-149.057c0-69.398-12.298-120.073-36.888-152.014c-19.084-24.842-45.644-37.264-79.676-37.264
		c-24.987,0-46.875,7-65.66,20.998c-18.789,14.001-32.313,35.147-40.576,63.438C445.499,428.471,441.368,457.403,441.368,486.978z"
		/>
</g>
</svg>
